# xmcd
#
# Track frame offsets: 
#        150
#        17390
#        31912
#        48398
#        64856
#        80167
#        96857
#        114512
#        129056
#        145433
#        159076
#        173722
#        190815
#        207666
#
# Disc length: 2922 seconds
#
# Revision: 0
# Processed by: cddbd v1.5.2PL0 Copyright (c) Steve Scherf et al.
# Submitted via: ExactAudioCopy v1.0b3
#
DISCID=b60b680e
DTITLE=ดวงตา คงทอง - เต็มใจรอ..เป็นพิเศษ
DYEAR=2003
DGENRE=Country
TTITLE0=เต็มใจรอ
TTITLE1=อยากเจอคนจริงใจ
TTITLE2=ชานรักชานชาลา
TTITLE3=เป่าเทียนเป่าเค้ก
TTITLE4=เลิกบุหรี่เลือกพี่เป็นแฟน
TTITLE5=เหนื่อยวันนี้
TTITLE6=ทำฉันทำไม
TTITLE7=ไม่ใช่ตัวสำรอง
TTITLE8=หนุ่มอันตราย
TTITLE9=น่าทำปืนลั่นใส่
TTITLE10=แอบดูเขารักกัน
TTITLE11=เธออย่าท้อ
TTITLE12=ดีกันนะ
TTITLE13=รางวัลน้ำใจ
EXTD=
EXTT0=
EXTT1=
EXTT2=
EXTT3=
EXTT4=
EXTT5=
EXTT6=
EXTT7=
EXTT8=
EXTT9=
EXTT10=
EXTT11=
EXTT12=
EXTT13=
PLAYORDER=
